# FamiTracker text export 0.4.2

# Song information
TITLE           "Nes"
AUTHOR          "Khopa "
COPYRIGHT       ""

# Song comment
COMMENT ""

# Global settings
MACHINE         0
FRAMERATE       0
EXPANSION       0
VIBRATO         1
SPLIT           21

# Macros
MACRO       0   0  -1  -1   0 : 15
MACRO       0   1  -1  -1   0 : 10 6 4 3 2 1 1 0
MACRO       0   2  -1  -1   0 : 11 10 9 0
MACRO       0   3  -1  -1   0 : 15 11 7 6 5 4 3 2 1 0
MACRO       0   4  -1  -1   0 : 7 7 6 5 5 4 4 3 3 3 2 2 2 1 1 1 0
MACRO       0   5  -1  -1   0 : 12 11 10 10 9 9 9 9 8 8 8 8 7 7 7 7 7 7 7 7 6 6 6 6 6 6 6 6 6 5 5 5 5 5 5 5 5 5 5 5 4 4 4 4 4 4 4 4 4 4 4 4 4 3 3 3 3 3 3 3 3 3 3 3 3 3 2 2 2 2 2 2 2 2 2 2 2 2 2 2 2 2 2 2 2 1 1 1 1 1 1 1 1 1 1 1 1 1 1 1 1 1 1 1 1 1 1 1 1 1 1 0 0 0 0 0 0
MACRO       0   6  -1  -1   0 : 6 2 1 1 1 1 0 0
MACRO       0   7  -1  -1   0 : 4 4 4 3 3 3 3 3 3 3 3 3 3 3 3 3 2 2 2 2 2 2 2 2 2 2 2 2 1 1 1 1 1 1 1 1 1 1 1 1 1 1 1 1 1 1 1 0
MACRO       0   8  -1  -1   0 : 3 3 2 2 2 2 1 1 1 1 1 1 1 0
MACRO       0   9  -1  -1   0 : 3 3 2 2 2 2 2 2 1 1 1 1 1 1 0
MACRO       0  10  -1  -1   0 : 3 3 2 2 1 1 1 1 1 0
MACRO       0  11  -1  -1   0 : 6 6 7 7 6 6 5 5 4 4 3 3 3 3 2 2 2 2 2 2 1 1 1 1 1 1 0
MACRO       0  12  -1  -1   0 : 15 0 15 0
MACRO       1   0  -1  -1   0 : 12 0
MACRO       1   1  -1  -1   0 : 8 0 4
MACRO       1   2   0  -1   0 : 0 0 3 3 7 7
MACRO       1   3   0  -1   0 : 0 0 4 4 7 7
MACRO       1   4  -1  -1   0 : 0 0 0 0 0 0 -1 -2 -3 -4 -5 -6 -7 -8 -9 -10 -11 -12 -13 -14 -15 -16 -17 -18 -19 -20 -21 -22 -23 -24 -24 -25 -25 -26 -26 -27 -27 -28 -28 -29 -29 -30 -30 -31 -31
MACRO       1   5   0  -1   0 : 0 0 3 3 8 8
MACRO       2   0  16  -1   0 : 0 0 0 0 0 0 0 0 0 0 0 0 0 0 0 0 1 0 0 1 0 0 -1 0 0 -1 0 0
MACRO       2   1  -1  -1   0 : 4
MACRO       2   2   0  -1   0 : 1
MACRO       4   0  -1  -1   0 : 1
MACRO       4   1  -1  -1   0 : 1
MACRO       4   2  -1  -1   0 : 0
MACRO       4   3  -1  -1   0 : 2

# DPCM samples
DPCMDEF   0   193 "0bde.dmc"
DPCM : A9 7E E9 3F FC 3F F0 0F 07 00 00 00 00 00 00 00 00 00 00 00 F8 FF FF FF FF FF FF FF AB AA AA AA
DPCM : AA AA AA AA 4A 42 88 08 82 10 10 01 05 4A 00 09 50 AD 24 09 00 00 80 DA 7B AD B6 AD B6 DB B6 B6
DPCM : AD 6D BB AD 7D EB 57 7B D5 4A 55 55 A5 52 92 24 24 92 54 92 24 49 49 29 A5 4A 55 95 56 55 AD 6A
DPCM : D5 6A AD D5 DA BA 6D B5 76 5B 6B DB 5A 6B 5B 5B AD 5A 55 55 55 2A 95 94 24 49 29 49 92 24 25 49
DPCM : 92 52 92 52 4A A9 AA AA AA AA D5 6A AD B5 B6 D6 D6 D6 5A B5 56 AB D5 AA AA 5A 55 A5 AA AA 4A 55
DPCM : A5 AA 54 55 AA 4A 55 55 A5 AA 54 55 AA 52 55 55 55 55 AB AA 55 AD 5A 55 55 AB 54 55 55 55 55 55
DPCM : 00
DPCMDEF   1   433 "s2.dmc"
DPCM : A9 AA 2A 2A C3 B7 9A E3 FF 1F 3D 60 00 78 18 0C 0B 02 00 40 DD D7 FD FF FF FF FF 3B F3 3E 26 A4
DPCM : 06 00 00 00 00 00 88 DB 36 7E 7E FE F3 FF FF FF 3F 17 80 00 0E 00 82 18 C3 01 83 09 F3 05 FF FF
DPCM : 7F D5 2D D6 C5 DE 93 EE 71 60 20 03 84 05 0E E3 09 A1 B1 47 F1 FD CF EF BF B8 37 06 E8 0F 58 F0
DPCM : 68 60 A6 C0 03 0C 83 F3 E6 3B 37 D5 8C 1D DF F3 E6 3B AF CA 1C 00 8C 30 20 8B 21 78 9C 86 F2 ED
DPCM : F7 4F 9F 5F 7C 88 FB 20 3E C6 81 03 47 40 88 B0 3A EC BA 65 B3 DF E9 F4 F9 49 6F 66 71 B0 98 10
DPCM : E4 98 40 58 E3 31 C7 62 FA FC F8 96 FF 06 6F 5D 68 B0 F3 40 C2 28 82 46 D1 38 57 E3 CE E5 78 8F
DPCM : 7A 07 EF 39 E7 50 60 66 0C 6B 4A E6 20 4B D8 C6 63 EA 9E D3 4D CF 79 1A 3A 3C F4 80 89 3E CA B2
DPCM : 8A C8 96 71 A9 F9 E4 74 6A D1 95 AD CB 61 1C C5 99 1A 57 B1 36 8A 66 91 D5 8C 97 3C 33 AB C5 87
DPCM : 6E E4 56 F2 28 AA 29 B5 B4 70 2B B3 AA A6 71 AA 2C A9 2D 2D B3 6A CA F2 68 3A 56 D5 A4 6A 1E A3
DPCM : AA AA 8A 71 59 52 CD 6A AB 9C AA A9 CA 66 B9 99 4A 33 AA AC A9 8E A3 32 29 CB 62 5D 65 AD A5 96
DPCM : AA AA 5A AD 6A 19 D3 A4 C9 32 A5 4E 55 B5 32 E6 92 B5 9A A6 6A AA 59 65 B3 9A 92 29 4B 2D AD B2
DPCM : AA 34 93 56 AD AA AA A9 AA 59 AA AA AA 65 55 99 AA AA E2 D4 AA AA AC AA D2 4C 55 CB AA 9A 3A D5
DPCM : A8 AA AA AA AA AA AA AA AA AA AA AA AA AA AA AA AA AA AA AA AA AA AA AA AA AA AA AA AA AA AA AA
DPCM : AA AA AA AA AA AA AA AA AA AA AA AA AA AA AA AA AA
DPCMDEF   2   545 "sd1.dmc"
DPCM : 09 00 5F BD 7F FF FF 7F 00 7F 00 00 00 00 00 00 FC 2F F6 FF FF FF FF FF FF BF 00 B8 00 00 F0 03
DPCM : 00 00 00 00 00 60 F9 8F FF FF FF FF FF FF 7F 00 7E 80 00 00 00 00 00 F8 2C 00 FC FF 80 BD FE FF
DPCM : FF FF FF FF 07 00 30 00 00 00 1C 00 03 F8 7F F8 FF FF 1F 10 FF FF F1 06 F4 03 00 8C C4 0F E0 3B
DPCM : FC 00 03 FE 01 FC 2F 55 07 F4 FF FF 29 A9 FF 04 14 00 1C A0 38 00 FF C0 3E F0 FF FF 1F F8 03 6E
DPCM : 02 CA 13 FF 0F 00 1C 8C 79 04 7E 9F A1 18 E5 C3 1F 5E FF 07 F8 F0 48 83 F8 2F 02 A1 1B 38 8B B8
DPCM : 8F 82 87 7F 70 D2 8B FF 77 0E 80 47 76 B8 EC 63 60 04 00 FF 0F DC C0 DF 2D 0F 93 72 DC F4 E8 97
DPCM : 8E 2F 80 8E 2B 06 11 FF 00 0B 1E 1F DE CE 56 8D 53 C7 FE 13 07 AA 62 1E 64 9E 52 8B 82 DE 13 70
DPCM : D8 FF 50 01 FE 77 80 6F DF AA 02 52 C7 B4 00 FE 59 47 25 AD 4D 15 C1 DF 1E 74 58 93 8A CA EF 16
DPCM : 07 F3 0E 14 87 7E FC 80 E0 43 27 AF 95 BD 06 D5 29 36 B6 34 59 55 2F A4 D6 52 55 CB 2E 14 5E 45
DPCM : 11 73 7E C7 4B D4 6B 30 55 4D EF 86 84 1E 50 B5 EA 35 75 69 44 6B 34 5B 5C 95 DA A9 17 34 B1 4D
DPCM : DD 81 4D 55 55 52 DA BD A8 34 A9 66 6C 0D F5 54 55 D5 54 55 75 56 5D B0 12 5E C1 9A B1 4D EB B4
DPCM : 43 17 69 75 2C 4B 95 D5 33 A8 5A 55 AD 52 4D 35 25 2B B2 66 57 55 55 71 55 8F 74 E3 64 B3 22 A9
DPCM : A5 D5 0A 76 6A 15 69 E8 57 D5 43 6A A5 B5 6A 9A 2B 76 4A 16 C5 16 57 95 56 74 25 2E 68 EB 55 55
DPCM : 55 4D 55 AD 6A E5 5A 94 AA 4B 4C A5 B4 D4 8A 96 34 59 6B 5D AD EA 8C DD A4 31 AD 18 33 55 55 89
DPCM : 4A 5B 67 A9 45 AB 95 A5 5A 55 35 8F 55 E9 A8 2A B5 AC A9 4A 55 32 19 B5 9D A4 5D 55 55 55 74 D3
DPCM : AA E9 AA 4A 54 55 6D 69 52 55 B4 54 95 AA 5A 57 55 55 35 55 4D ED A8 AA 5A 4A 65 55 B5 B4 52 55
DPCM : 69 45 69 AA B6 5A 55 55 55 AB 5C 6A AB 94 2A 55 59 55 55 55 55 55 55 A5 AA 6A 55 55 59 55 A5 AA
DPCM : 00
DPCMDEF   3   209 "tom2.dmc"
DPCM : A9 AA AA AA 0A 00 00 1C FF FC FF FF FF 7F 1F 0E 3C 14 02 00 00 60 00 00 A8 6A BB B7 BD FB FD FF
DPCM : FF FF 9F 2A A5 12 20 08 00 00 00 00 A8 9A AA FA FF FF FF FF FF FF D7 2C D5 12 00 00 00 00 00 00
DPCM : A0 AA DA 7B FF FF FF FF FF FF AD CA 0A 10 00 00 00 00 00 84 A8 AA ED BF FF FF FF FF 7F F7 B5 AA
DPCM : 02 01 02 04 21 51 AA AA B5 DD F7 EF EF B7 B7 DB AA 54 52 12 82 80 00 82 88 A4 D4 5A DB EE FB BD
DPCM : 02 01 02 04 21 51 AA AA B5 DD F7 EF EF B7 B7 DB AA 54 52 12 82 80 00 82 88 A4 D4 5A DB EE FB BD
DPCM : BD F7 BE AE 55 55 8A 84 44 10 0A 41 88 24 29 B5 AE F7 76 EF EA B6 5B 6B B5 AA 52 52 92 A4 A4 92
DPCM : 94 52 A5 66 55 AD 56 6B AB 5A 6B 55 55 55 AA AA 52
DPCMDEF   4   161 "4bde.dmc"
DPCM : A9 6A 55 3B FC 15 F0 87 03 8A 0A 1E A8 AA AA AA AA AA AA AA BA DB AE E9 5F 51 57 55 55 55 55 55
DPCM : 55 55 55 55 55 A5 52 A9 94 4A A9 4A 95 4A 29 95 52 AD 54 A5 AA AA AA 55 AB 5A 55 AD AA 56 B5 AA
DPCM : 5A 55 AB AA 5A B5 56 D5 AA AA AA AA 52 55 95 AA 54 AA AA AA 54 95 AA 2A 55 55 55 55 55 55 55 55
DPCM : D5 AA AA AA 55 B5 AA AA 6A 55 B5 AA 5A 55 B5 AA AA 5A 55 55 55 AA AA 4A 55 A9 AA 54 95 AA AA 4A
DPCM : 55 A5 AA 52 55 55 55 55 55 55 55 55 AD AA 6A 55 D5 AA AA AA AA AA 55 55 55 55 55 55 55 55 55 55
DPCM : 70
DPCMDEF   5   865 "bark.dmc"
DPCM : 55 55 55 55 55 55 55 55 29 D5 5A B5 96 AA 54 A9 5A AB 54 55 55 55 52 DA 56 DB AA 52 52 55 55 25
DPCM : 69 B5 B6 4A 55 56 AB 2A A5 AA DA 2D 51 49 6D 4A 95 EA 56 BD 95 94 D4 97 80 24 75 AB 5B EB 96 D4
DPCM : 86 48 B2 BF 44 55 74 15 55 A9 5D DA AF 90 DA 57 00 88 DA AA BD 7D 97 6C 05 20 F2 3F 84 B5 B6 92
DPCM : AA 54 97 F6 2B E8 3F 01 00 74 49 DF FE 9F 50 0B 84 DE 13 80 FD 2D 91 D6 35 A5 FE 8A FE 02 00 E0
DPCM : 17 E8 EF FF 03 7A 40 F6 05 00 F4 7F D1 05 FE 92 F6 DF 1B 00 00 E0 0F FA DF FF 00 7E 80 3F 00 02
DPCM : FF 1F 5C 80 7F DA FF 0F 00 00 05 FA EF FF 82 6E 91 5F 00 00 F0 FF 45 22 F6 DD FF 0F 00 00 58 E9
DPCM : 5F F6 4B FF 1F 00 00 60 D7 7D 95 76 FD 3F 00 00 F0 93 7E 55 22 FB FF 03 00 E0 5F C0 2F 2B F5 FF
DPCM : 0F 00 00 5E C8 7F 5B D2 FF 1F 00 00 78 4D 76 D5 76 FF 0F 00 00 FE 40 77 AB D4 FF 1F 00 00 FC 2F
DPCM : 92 AA EA FF 3F 00 00 7E 2D 51 2A DA FF FF 00 00 F0 57 E8 92 DA FF 3F 00 00 F0 FB 4A 55 90 F7 FF
DPCM : 01 00 F0 FF 00 4B EC FE FF 01 00 E0 D7 55 B4 A2 DE FF 07 00 80 FF 11 2B 69 F7 FF 01 00 80 FF 2B
DPCM : 55 44 FD FF 03 00 00 FF 3F 40 AD DE FF 07 00 00 FE 3F 90 AA FA FF 07 00 00 FE 3F 88 54 F7 FF 03
DPCM : 00 00 FE FF 01 16 DD FF 07 00 00 FE FF 01 68 FD FF 07 00 00 FC FF 01 9A FC FF 07 00 00 F8 FF 03
DPCM : 68 FB FF 07 00 00 F8 FF 07 98 F4 FF 0F 00 00 F8 FF 0F 80 FA FD 7F 00 00 E0 FF 07 60 D5 FF FF 00
DPCM : 00 80 FF 3F 80 A2 7E FF 0F 00 00 FC FF 90 28 F5 FF 1F 00 00 F8 FA 53 55 E1 FD FF 00 00 80 FF 3F
DPCM : A0 22 7B FF 1F 00 00 7C FD 0F 20 A8 7F FF 7F 00 00 00 DE FF 04 AE F6 AF FE 07 00 00 E0 FF 1F 90
DPCM : 52 FD AF FF 08 00 00 FC B5 0B 74 77 FF 97 BA 00 00 00 F8 FF 5F 55 49 ED DB AE 00 12 80 B6 F4 DE
DPCM : B6 54 77 77 13 A0 4A A0 5F 89 92 DA 57 55 55 BB 52 49 AA 55 55 BD 42 2A A4 5B AA 55 5B DF 55 22
DPCM : 15 41 5F 55 4B 52 AA 56 A9 DB DB 5A 95 08 01 DD 5B 2B 25 55 D5 5A 55 D5 DE 4D 82 00 D4 FD DD 36
DPCM : 11 C9 AA 92 CC 7A 6F 56 4A 12 B2 B6 D5 B6 52 55 94 08 51 F6 FF AF 94 10 25 A9 6A 55 6D BB AD 22
DPCM : 00 51 BB DF BD 2A 95 48 92 D2 DA 55 DB A5 94 4A 09 AA 6E DB B6 B5 08 91 DA 56 55 55 D5 AA AA 4A
DPCM : 91 D4 D6 56 6D B5 2A 94 54 AD D6 56 49 55 D5 AA 2A 55 A4 B2 5B 55 55 D5 AA AA 52 4A DA 56 55 55
DPCM : 55 55 D5 AA 54 A9 AA A4 DA 6A D5 AA 55 A9 52 55 45 69 AD B5 6A 95 52 55 55 29 55 5B 55 55 55 A5
DPCM : D5 56 49 95 55 55 2A AD AA B5 AD 4A 24 59 5B 55 55 55 55 55 AB 94 AA 55 55 55 55 A9 56 55 A5 AA
DPCM : D5 52 55 55 55 B5 AA 52 55 A9 AA AA AA 6A 6D AB 92 54 A9 AA 52 AB 55 D5 5A 95 54 55 55 55 A5 94
DPCM : 75 55 AB 54 AD 54 95 AA 4A 75 55 6D 95 52 59 55 55 55 AA 55 B5 2A 55 55 B5 54 55 95 AA AA AA 59
DPCM : B5 AA 2A 55 69 55 55 AA 54 6B B5 AA 52 55 B5 AA 54 11 B5 6D 6D A5 52 D5 2A 95 AA D4 5A B5 A9 54
DPCM : 55 4B 55 A5 54 6B D5 54 AA D5 B5 A4 94 A4 DA 56 AD 54 55 D5 AA 52 51 DA 55 AB 52 55 55 55 55 55
DPCM : 55

# Instruments
INST2A03   0     0  -1  -1  -1  -1 "bass"
KEYDPCM   0   3   0     0  15   0     0  -1
KEYDPCM   0   3   2     1  15   0     0  -1
KEYDPCM   0   3   4     2  15   0     0  -1
KEYDPCM   0   3   5     3  15   0     0  -1
KEYDPCM   0   3   7     4  15   0     0  -1
KEYDPCM   0   3  11     5  15   0     0  -1
INST2A03   1     1  -1  -1  -1  -1 "hat"
INST2A03   2     2   0  -1  -1  -1 "kick"
INST2A03   3     3   1  -1  -1  -1 "snare"
INST2A03   4     4   2  -1  -1   0 "key037"
INST2A03   5     4   3  -1  -1   0 "key047"
INST2A03   6     5  -1   0  -1   1 "solo1"
INST2A03   7     9   2   1  -1   0 "key037p"
INST2A03   8     9   3   1  -1   0 "key047p"
INST2A03   9     0   4  -1  -1  -1 "bassd"
INST2A03  10     6  -1  -1  -1  -1 "hatq"
INST2A03  11     7  -1   0  -1   1 "solo1q"
INST2A03  12     8   3  -1  -1   0 "key047q"
INST2A03  13     5  -1   0  -1   2 "solo2"
INST2A03  14     7  -1   0  -1   2 "solo2q"
INST2A03  15     4   5  -1  -1   0 "key038"
INST2A03  16     8   2  -1  -1   0 "key037q"
INST2A03  17    10   2   1  -1   0 "key037p1"
INST2A03  18    11  -1  -1  -1   3 "key1"
INST2A03  19    12  -1  -1  -1  -1 "bass2"

# Tracks

TRACK  64   3 150 "New song"
COLUMNS : 1 1 1 1 1

ORDER 00 : 01 01 04 01 00
ORDER 01 : 03 03 04 01 00
ORDER 02 : 04 04 04 01 00
ORDER 03 : 05 05 04 00 01
ORDER 04 : 01 01 04 01 00
ORDER 05 : 05 05 00 01 01
ORDER 06 : 03 03 04 01 00

PATTERN 00
ROW 00 : ... .. . ... : ... .. . ... : ... .. . ... : C-# 01 . ... : ... .. . ...
ROW 01 : ... .. . ... : ... .. . ... : ... .. . ... : ... .. . ... : ... .. . ...
ROW 02 : ... .. . ... : ... .. . ... : ... .. . ... : C-# 01 . ... : ... .. . ...
ROW 03 : ... .. . ... : ... .. . ... : ... .. . ... : ... .. . ... : ... .. . ...
ROW 04 : ... .. . ... : ... .. . ... : ... .. . ... : F-# 02 . ... : ... .. . ...
ROW 05 : ... .. . ... : ... .. . ... : ... .. . ... : ... .. . ... : ... .. . ...
ROW 06 : ... .. . ... : ... .. . ... : ... .. . ... : F-# 03 . ... : ... .. . ...
ROW 07 : ... .. . ... : ... .. . ... : ... .. . ... : ... .. . ... : ... .. . ...
ROW 08 : ... .. . ... : ... .. . ... : ... .. . ... : E-# 01 . ... : ... .. . ...
ROW 09 : ... .. . ... : ... .. . ... : ... .. . ... : ... .. . ... : ... .. . ...
ROW 0A : ... .. . ... : ... .. . ... : ... .. . ... : E-# 01 . ... : ... .. . ...
ROW 0B : ... .. . ... : ... .. . ... : ... .. . ... : ... .. . ... : ... .. . ...
ROW 0C : ... .. . ... : ... .. . ... : ... .. . ... : C-# 03 . ... : ... .. . ...
ROW 0D : ... .. . ... : ... .. . ... : ... .. . ... : ... .. . ... : ... .. . ...
ROW 0E : ... .. . ... : ... .. . ... : ... .. . ... : C-# 03 . ... : ... .. . ...
ROW 0F : ... .. . ... : ... .. . ... : ... .. . ... : ... .. . ... : ... .. . ...
ROW 10 : ... .. . ... : ... .. . ... : ... .. . ... : C-# 01 . ... : ... .. . ...
ROW 11 : ... .. . ... : ... .. . ... : ... .. . ... : ... .. . ... : ... .. . ...
ROW 12 : ... .. . ... : ... .. . ... : ... .. . ... : C-# 01 . ... : ... .. . ...
ROW 13 : ... .. . ... : ... .. . ... : ... .. . ... : ... .. . ... : ... .. . ...
ROW 14 : ... .. . ... : ... .. . ... : ... .. . ... : F-# 02 . ... : ... .. . ...
ROW 15 : ... .. . ... : ... .. . ... : ... .. . ... : ... .. . ... : ... .. . ...
ROW 16 : ... .. . ... : ... .. . ... : ... .. . ... : F-# 03 . ... : ... .. . ...
ROW 17 : ... .. . ... : ... .. . ... : ... .. . ... : ... .. . ... : ... .. . ...
ROW 18 : ... .. . ... : ... .. . ... : ... .. . ... : E-# 01 . ... : ... .. . ...
ROW 19 : ... .. . ... : ... .. . ... : ... .. . ... : ... .. . ... : ... .. . ...
ROW 1A : ... .. . ... : ... .. . ... : ... .. . ... : E-# 01 . ... : ... .. . ...
ROW 1B : ... .. . ... : ... .. . ... : ... .. . ... : ... .. . ... : ... .. . ...
ROW 1C : ... .. . ... : ... .. . ... : ... .. . ... : C-# 03 . ... : ... .. . ...
ROW 1D : ... .. . ... : ... .. . ... : ... .. . ... : ... .. . ... : ... .. . ...
ROW 1E : ... .. . ... : ... .. . ... : ... .. . ... : C-# 03 . ... : ... .. . ...
ROW 1F : ... .. . ... : ... .. . ... : ... .. . ... : ... .. . ... : ... .. . ...
ROW 20 : ... .. . ... : ... .. . ... : ... .. . ... : C-# 01 . ... : ... .. . ...
ROW 21 : ... .. . ... : ... .. . ... : ... .. . ... : ... .. . ... : ... .. . ...
ROW 22 : ... .. . ... : ... .. . ... : ... .. . ... : C-# 01 . ... : ... .. . ...
ROW 23 : ... .. . ... : ... .. . ... : ... .. . ... : ... .. . ... : ... .. . ...
ROW 24 : ... .. . ... : ... .. . ... : ... .. . ... : F-# 02 . ... : ... .. . ...
ROW 25 : ... .. . ... : ... .. . ... : ... .. . ... : ... .. . ... : ... .. . ...
ROW 26 : ... .. . ... : ... .. . ... : ... .. . ... : F-# 03 . ... : ... .. . ...
ROW 27 : ... .. . ... : ... .. . ... : ... .. . ... : ... .. . ... : ... .. . ...
ROW 28 : ... .. . ... : ... .. . ... : ... .. . ... : E-# 01 . ... : ... .. . ...
ROW 29 : ... .. . ... : ... .. . ... : ... .. . ... : ... .. . ... : ... .. . ...
ROW 2A : ... .. . ... : ... .. . ... : ... .. . ... : E-# 01 . ... : ... .. . ...
ROW 2B : ... .. . ... : ... .. . ... : ... .. . ... : ... .. . ... : ... .. . ...
ROW 2C : ... .. . ... : ... .. . ... : ... .. . ... : C-# 03 . ... : ... .. . ...
ROW 2D : ... .. . ... : ... .. . ... : ... .. . ... : ... .. . ... : ... .. . ...
ROW 2E : ... .. . ... : ... .. . ... : ... .. . ... : C-# 03 . ... : ... .. . ...
ROW 2F : ... .. . ... : ... .. . ... : ... .. . ... : ... .. . ... : ... .. . ...
ROW 30 : ... .. . ... : ... .. . ... : ... .. . ... : C-# 01 . ... : ... .. . ...
ROW 31 : ... .. . ... : ... .. . ... : ... .. . ... : ... .. . ... : ... .. . ...
ROW 32 : ... .. . ... : ... .. . ... : ... .. . ... : C-# 01 . ... : ... .. . ...
ROW 33 : ... .. . ... : ... .. . ... : ... .. . ... : ... .. . ... : ... .. . ...
ROW 34 : ... .. . ... : ... .. . ... : ... .. . ... : F-# 02 . ... : ... .. . ...
ROW 35 : ... .. . ... : ... .. . ... : ... .. . ... : ... .. . ... : ... .. . ...
ROW 36 : ... .. . ... : ... .. . ... : ... .. . ... : F-# 03 . ... : ... .. . ...
ROW 37 : ... .. . ... : ... .. . ... : ... .. . ... : ... .. . ... : ... .. . ...
ROW 38 : ... .. . ... : ... .. . ... : ... .. . ... : E-# 01 . ... : ... .. . ...
ROW 39 : ... .. . ... : ... .. . ... : ... .. . ... : ... .. . ... : ... .. . ...
ROW 3A : ... .. . ... : ... .. . ... : ... .. . ... : E-# 01 . ... : ... .. . ...
ROW 3B : ... .. . ... : ... .. . ... : ... .. . ... : ... .. . ... : ... .. . ...
ROW 3C : ... .. . ... : ... .. . ... : ... .. . ... : C-# 03 . ... : ... .. . ...
ROW 3D : ... .. . ... : ... .. . ... : ... .. . ... : ... .. . ... : ... .. . ...
ROW 3E : ... .. . ... : ... .. . ... : ... .. . ... : C-# 03 . ... : ... .. . ...
ROW 3F : ... .. . ... : ... .. . ... : ... .. . ... : ... .. . ... : ... .. . ...

PATTERN 01
ROW 00 : ... .. . ... : C-4 12 . ... : A-3 13 . ... : ... .. . ... : ... .. . ...
ROW 01 : ... .. . ... : ... .. . ... : A-3 13 . ... : ... .. . ... : ... .. . ...
ROW 02 : ... .. . ... : ... .. . ... : ... .. . ... : ... .. . ... : ... .. . ...
ROW 03 : ... .. . ... : ... .. . ... : A-3 13 . ... : ... .. . ... : ... .. . ...
ROW 04 : ... .. . ... : C-3 12 . ... : A-3 13 . ... : ... .. . ... : ... .. . ...
ROW 05 : ... .. . ... : ... .. . ... : ... .. . ... : ... .. . ... : ... .. . ...
ROW 06 : ... .. . ... : ... .. . ... : ... .. . ... : ... .. . ... : ... .. . ...
ROW 07 : ... .. . ... : ... .. . ... : ... .. . ... : ... .. . ... : ... .. . ...
ROW 08 : ... .. . ... : E-4 12 . ... : ... .. . ... : ... .. . ... : ... .. . ...
ROW 09 : ... .. . ... : ... .. . ... : ... .. . ... : ... .. . ... : ... .. . ...
ROW 0A : ... .. . ... : ... .. . ... : ... .. . ... : ... .. . ... : ... .. . ...
ROW 0B : ... .. . ... : E-4 12 . ... : ... .. . ... : ... .. . ... : ... .. . ...
ROW 0C : ... .. . ... : ... .. . ... : ... .. . ... : ... .. . ... : ... .. . ...
ROW 0D : ... .. . ... : ... .. . ... : ... .. . ... : ... .. . ... : ... .. . ...
ROW 0E : ... .. . ... : ... .. . ... : ... .. . ... : ... .. . ... : ... .. . ...
ROW 0F : ... .. . ... : ... .. . ... : ... .. . ... : ... .. . ... : ... .. . ...
ROW 10 : ... .. . ... : ... .. . ... : ... .. . ... : ... .. . ... : ... .. . ...
ROW 11 : ... .. . ... : ... .. . ... : ... .. . ... : ... .. . ... : ... .. . ...
ROW 12 : ... .. . ... : ... .. . ... : ... .. . ... : ... .. . ... : ... .. . ...
ROW 13 : ... .. . ... : ... .. . ... : ... .. . ... : ... .. . ... : ... .. . ...
ROW 14 : ... .. . ... : ... .. . ... : ... .. . ... : ... .. . ... : ... .. . ...
ROW 15 : ... .. . ... : C-4 12 . ... : A-3 13 . ... : ... .. . ... : ... .. . ...
ROW 16 : ... .. . ... : ... .. . ... : A-3 13 . ... : ... .. . ... : ... .. . ...
ROW 17 : ... .. . ... : ... .. . ... : ... .. . ... : ... .. . ... : ... .. . ...
ROW 18 : ... .. . ... : C-4 12 . ... : A-3 13 . ... : ... .. . ... : ... .. . ...
ROW 19 : ... .. . ... : ... .. . ... : A-3 13 . ... : ... .. . ... : ... .. . ...
ROW 1A : ... .. . ... : ... .. . ... : ... .. . ... : ... .. . ... : ... .. . ...
ROW 1B : ... .. . ... : ... .. . ... : ... .. . ... : ... .. . ... : ... .. . ...
ROW 1C : ... .. . ... : F-4 0D . ... : A-3 13 . ... : ... .. . ... : ... .. . ...
ROW 1D : ... .. . ... : ... .. . ... : A-3 13 . ... : ... .. . ... : ... .. . ...
ROW 1E : ... .. . ... : ... .. . ... : ... .. . ... : ... .. . ... : ... .. . ...
ROW 1F : ... .. . ... : ... .. . ... : ... .. . ... : ... .. . ... : ... .. . ...
ROW 20 : ... .. . ... : ... .. . ... : ... .. . ... : ... .. . ... : ... .. . ...
ROW 21 : ... .. . ... : ... .. . ... : ... .. . ... : ... .. . ... : ... .. . ...
ROW 22 : ... .. . ... : ... .. . ... : ... .. . ... : ... .. . ... : ... .. . ...
ROW 23 : ... .. . ... : ... .. . ... : ... .. . ... : ... .. . ... : ... .. . ...
ROW 24 : ... .. . ... : ... .. . ... : ... .. . ... : ... .. . ... : ... .. . ...
ROW 25 : ... .. . ... : ... .. . ... : ... .. . ... : ... .. . ... : ... .. . ...
ROW 26 : ... .. . ... : ... .. . ... : ... .. . ... : ... .. . ... : ... .. . ...
ROW 27 : ... .. . ... : ... .. . ... : ... .. . ... : ... .. . ... : ... .. . ...
ROW 28 : ... .. . ... : ... .. . ... : ... .. . ... : ... .. . ... : ... .. . ...
ROW 29 : ... .. . ... : ... .. . ... : ... .. . ... : ... .. . ... : ... .. . ...
ROW 2A : ... .. . ... : ... .. . ... : ... .. . ... : ... .. . ... : ... .. . ...
ROW 2B : ... .. . ... : ... .. . ... : ... .. . ... : ... .. . ... : ... .. . ...
ROW 2C : ... .. . ... : ... .. . ... : ... .. . ... : ... .. . ... : ... .. . ...
ROW 2D : ... .. . ... : ... .. . ... : ... .. . ... : ... .. . ... : ... .. . ...
ROW 2E : ... .. . ... : ... .. . ... : ... .. . ... : ... .. . ... : ... .. . ...
ROW 2F : ... .. . ... : ... .. . ... : ... .. . ... : ... .. . ... : ... .. . ...
ROW 30 : ... .. . ... : ... .. . ... : ... .. . ... : ... .. . ... : ... .. . ...
ROW 31 : ... .. . ... : ... .. . ... : ... .. . ... : ... .. . ... : ... .. . ...
ROW 32 : ... .. . ... : ... .. . ... : ... .. . ... : ... .. . ... : ... .. . ...
ROW 33 : ... .. . ... : ... .. . ... : ... .. . ... : ... .. . ... : ... .. . ...
ROW 34 : ... .. . ... : ... .. . ... : ... .. . ... : ... .. . ... : ... .. . ...
ROW 35 : ... .. . ... : ... .. . ... : ... .. . ... : ... .. . ... : ... .. . ...
ROW 36 : ... .. . ... : ... .. . ... : ... .. . ... : ... .. . ... : ... .. . ...
ROW 37 : ... .. . ... : ... .. . ... : ... .. . ... : ... .. . ... : ... .. . ...
ROW 38 : ... .. . ... : ... .. . ... : ... .. . ... : ... .. . ... : ... .. . ...
ROW 39 : ... .. . ... : ... .. . ... : ... .. . ... : ... .. . ... : ... .. . ...
ROW 3A : ... .. . ... : ... .. . ... : ... .. . ... : ... .. . ... : ... .. . ...
ROW 3B : ... .. . ... : ... .. . ... : ... .. . ... : ... .. . ... : ... .. . ...
ROW 3C : ... .. . ... : ... .. . ... : ... .. . ... : ... .. . ... : ... .. . ...
ROW 3D : ... .. . ... : ... .. . ... : ... .. . ... : ... .. . ... : ... .. . ...
ROW 3E : ... .. . ... : ... .. . ... : ... .. . ... : ... .. . ... : ... .. . ...
ROW 3F : ... .. . ... : ... .. . ... : ... .. . ... : ... .. . ... : ... .. . ...

PATTERN 02
ROW 00 : ... .. . ... : D#3 0A . ... : ... .. . ... : ... .. . ... : ... .. . ...
ROW 01 : ... .. . ... : ... .. . ... : ... .. . ... : ... .. . ... : ... .. . ...
ROW 02 : ... .. . ... : ... .. . ... : ... .. . ... : ... .. . ... : ... .. . ...
ROW 03 : ... .. . ... : ... .. . ... : ... .. . ... : ... .. . ... : ... .. . ...
ROW 04 : ... .. . ... : D#3 .. . ... : D#3 03 . ... : ... .. . ... : ... .. . ...
ROW 05 : ... .. . ... : ... .. . ... : ... .. . ... : ... .. . ... : ... .. . ...
ROW 06 : ... .. . ... : ... .. . ... : ... .. . ... : ... .. . ... : ... .. . ...
ROW 07 : ... .. . ... : ... .. . ... : ... .. . ... : ... .. . ... : ... .. . ...
ROW 08 : D#3 03 . ... : D#3 .. . ... : ... .. . ... : ... .. . ... : ... .. . ...
ROW 09 : ... .. . ... : ... .. . ... : ... .. . ... : ... .. . ... : ... .. . ...
ROW 0A : ... .. . ... : ... .. . ... : ... .. . ... : ... .. . ... : ... .. . ...
ROW 0B : ... .. . ... : ... .. . ... : ... .. . ... : ... .. . ... : ... .. . ...
ROW 0C : ... .. . ... : F#3 .. . ... : F-4 03 . ... : ... .. . ... : ... .. . ...
ROW 0D : ... .. . ... : ... .. . ... : ... .. . ... : ... .. . ... : ... .. . ...
ROW 0E : ... .. . ... : ... .. . ... : ... .. . ... : ... .. . ... : ... .. . ...
ROW 0F : ... .. . ... : ... .. . ... : ... .. . ... : ... .. . ... : ... .. . ...
ROW 10 : ... .. . ... : C#3 .. . ... : ... .. . ... : ... .. . ... : ... .. . ...
ROW 11 : ... .. . ... : ... .. . ... : ... .. . ... : ... .. . ... : ... .. . ...
ROW 12 : ... .. . ... : ... .. . ... : ... .. . ... : ... .. . ... : ... .. . ...
ROW 13 : ... .. . ... : ... .. . ... : ... .. . ... : ... .. . ... : ... .. . ...
ROW 14 : ... .. . ... : C#3 .. . ... : F-4 03 . ... : ... .. . ... : ... .. . ...
ROW 15 : ... .. . ... : ... .. . ... : ... .. . ... : ... .. . ... : ... .. . ...
ROW 16 : ... .. . ... : ... .. . ... : ... .. . ... : ... .. . ... : ... .. . ...
ROW 17 : ... .. . ... : ... .. . ... : ... .. . ... : ... .. . ... : ... .. . ...
ROW 18 : D#3 03 . ... : C#3 .. . ... : ... .. . ... : ... .. . ... : ... .. . ...
ROW 19 : ... .. . ... : ... .. . ... : ... .. . ... : ... .. . ... : ... .. . ...
ROW 1A : ... .. . ... : ... .. . ... : ... .. . ... : ... .. . ... : ... .. . ...
ROW 1B : ... .. . ... : ... .. . ... : ... .. . ... : ... .. . ... : ... .. . ...
ROW 1C : ... .. . ... : F#3 .. . ... : C#3 03 . ... : ... .. . ... : ... .. . ...
ROW 1D : ... .. . ... : ... .. . ... : ... .. . ... : ... .. . ... : ... .. . ...
ROW 1E : ... .. . ... : ... .. . ... : ... .. . ... : ... .. . ... : ... .. . ...
ROW 1F : ... .. . ... : ... .. . ... : ... .. . ... : ... .. . ... : ... .. . ...
ROW 20 : ... .. . ... : D#3 .. . ... : ... .. . ... : ... .. . ... : ... .. . ...
ROW 21 : ... .. . ... : ... .. . ... : ... .. . ... : ... .. . ... : ... .. . ...
ROW 22 : ... .. . ... : ... .. . ... : ... .. . ... : ... .. . ... : ... .. . ...
ROW 23 : ... .. . ... : ... .. . ... : ... .. . ... : ... .. . ... : ... .. . ...
ROW 24 : ... .. . ... : D#3 .. . ... : C#3 03 . ... : ... .. . ... : ... .. . ...
ROW 25 : ... .. . ... : ... .. . ... : ... .. . ... : ... .. . ... : ... .. . ...
ROW 26 : ... .. . ... : ... .. . ... : ... .. . ... : ... .. . ... : ... .. . ...
ROW 27 : ... .. . ... : ... .. . ... : ... .. . ... : ... .. . ... : ... .. . ...
ROW 28 : D#3 03 . ... : D#3 .. . ... : ... .. . ... : ... .. . ... : ... .. . ...
ROW 29 : ... .. . ... : ... .. . ... : ... .. . ... : ... .. . ... : ... .. . ...
ROW 2A : ... .. . ... : ... .. . ... : ... .. . ... : ... .. . ... : ... .. . ...
ROW 2B : ... .. . ... : ... .. . ... : ... .. . ... : ... .. . ... : ... .. . ...
ROW 2C : ... .. . ... : F#3 .. . ... : G-3 03 . ... : ... .. . ... : ... .. . ...
ROW 2D : ... .. . ... : ... .. . ... : ... .. . ... : ... .. . ... : ... .. . ...
ROW 2E : ... .. . ... : ... .. . ... : ... .. . ... : ... .. . ... : ... .. . ...
ROW 2F : ... .. . ... : ... .. . ... : ... .. . ... : ... .. . ... : ... .. . ...
ROW 30 : ... .. . ... : ... .. . ... : ... .. . ... : ... .. . ... : ... .. . ...
ROW 31 : ... .. . ... : ... .. . ... : ... .. . ... : ... .. . ... : ... .. . ...
ROW 32 : ... .. . ... : ... .. . ... : ... .. . ... : ... .. . ... : ... .. . ...
ROW 33 : ... .. . ... : ... .. . ... : ... .. . ... : ... .. . ... : ... .. . ...
ROW 34 : ... .. . ... : ... .. . ... : ... .. . ... : ... .. . ... : ... .. . ...
ROW 35 : ... .. . ... : ... .. . ... : ... .. . ... : ... .. . ... : ... .. . ...
ROW 36 : ... .. . ... : ... .. . ... : ... .. . ... : ... .. . ... : ... .. . ...
ROW 37 : ... .. . ... : ... .. . ... : ... .. . ... : ... .. . ... : ... .. . ...
ROW 38 : ... .. . ... : C#3 .. . ... : ... .. . ... : ... .. . ... : ... .. . ...
ROW 39 : ... .. . ... : ... .. . ... : ... .. . ... : ... .. . ... : ... .. . ...
ROW 3A : ... .. . ... : ... .. . ... : ... .. . ... : ... .. . ... : ... .. . ...
ROW 3B : ... .. . ... : ... .. . ... : ... .. . ... : ... .. . ... : ... .. . ...
ROW 3C : ... .. . ... : F#3 .. . ... : ... .. . ... : ... .. . ... : ... .. . ...
ROW 3D : ... .. . ... : ... .. . ... : ... .. . ... : ... .. . ... : ... .. . ...
ROW 3E : ... .. . ... : ... .. . ... : ... .. . ... : ... .. . ... : ... .. . ...
ROW 3F : ... .. . ... : ... .. . ... : ... .. . ... : ... .. . ... : ... .. . ...

PATTERN 03
ROW 00 : ... .. . ... : C-4 12 . ... : ... .. . ... : ... .. . ... : ... .. . ...
ROW 01 : ... .. . ... : ... .. . ... : ... .. . ... : ... .. . ... : ... .. . ...
ROW 02 : ... .. . ... : ... .. . ... : ... .. . ... : ... .. . ... : ... .. . ...
ROW 03 : ... .. . ... : ... .. . ... : ... .. . ... : ... .. . ... : ... .. . ...
ROW 04 : ... .. . ... : C-3 12 . ... : ... .. . ... : ... .. . ... : ... .. . ...
ROW 05 : ... .. . ... : ... .. . ... : ... .. . ... : ... .. . ... : ... .. . ...
ROW 06 : ... .. . ... : ... .. . ... : ... .. . ... : ... .. . ... : ... .. . ...
ROW 07 : ... .. . ... : ... .. . ... : ... .. . ... : ... .. . ... : ... .. . ...
ROW 08 : ... .. . ... : E-4 12 . ... : ... .. . ... : ... .. . ... : ... .. . ...
ROW 09 : ... .. . ... : ... .. . ... : ... .. . ... : ... .. . ... : ... .. . ...
ROW 0A : ... .. . ... : ... .. . ... : ... .. . ... : ... .. . ... : ... .. . ...
ROW 0B : ... .. . ... : E-4 12 . ... : ... .. . ... : ... .. . ... : ... .. . ...
ROW 0C : ... .. . ... : ... .. . ... : ... .. . ... : ... .. . ... : ... .. . ...
ROW 0D : ... .. . ... : ... .. . ... : ... .. . ... : ... .. . ... : ... .. . ...
ROW 0E : ... .. . ... : ... .. . ... : ... .. . ... : ... .. . ... : ... .. . ...
ROW 0F : ... .. . ... : ... .. . ... : ... .. . ... : ... .. . ... : ... .. . ...
ROW 10 : ... .. . ... : ... .. . ... : ... .. . ... : ... .. . ... : ... .. . ...
ROW 11 : ... .. . ... : ... .. . ... : ... .. . ... : ... .. . ... : ... .. . ...
ROW 12 : ... .. . ... : ... .. . ... : ... .. . ... : ... .. . ... : ... .. . ...
ROW 13 : ... .. . ... : ... .. . ... : ... .. . ... : ... .. . ... : ... .. . ...
ROW 14 : ... .. . ... : ... .. . ... : ... .. . ... : ... .. . ... : ... .. . ...
ROW 15 : ... .. . ... : C-4 12 . ... : ... .. . ... : ... .. . ... : ... .. . ...
ROW 16 : ... .. . ... : ... .. . ... : ... .. . ... : ... .. . ... : ... .. . ...
ROW 17 : ... .. . ... : ... .. . ... : ... .. . ... : ... .. . ... : ... .. . ...
ROW 18 : ... .. . ... : C-4 12 . ... : ... .. . ... : ... .. . ... : ... .. . ...
ROW 19 : ... .. . ... : ... .. . ... : ... .. . ... : ... .. . ... : ... .. . ...
ROW 1A : ... .. . ... : ... .. . ... : ... .. . ... : ... .. . ... : ... .. . ...
ROW 1B : ... .. . ... : ... .. . ... : ... .. . ... : ... .. . ... : ... .. . ...
ROW 1C : ... .. . ... : A-3 0D . ... : ... .. . ... : ... .. . ... : ... .. . ...
ROW 1D : ... .. . ... : ... .. . ... : ... .. . ... : ... .. . ... : ... .. . ...
ROW 1E : ... .. . ... : ... .. . ... : ... .. . ... : ... .. . ... : ... .. . ...
ROW 1F : ... .. . ... : ... .. . ... : ... .. . ... : ... .. . ... : ... .. . ...
ROW 20 : ... .. . ... : ... .. . ... : ... .. . ... : ... .. . ... : ... .. . ...
ROW 21 : ... .. . ... : ... .. . ... : ... .. . ... : ... .. . ... : ... .. . ...
ROW 22 : ... .. . ... : ... .. . ... : ... .. . ... : ... .. . ... : ... .. . ...
ROW 23 : ... .. . ... : ... .. . ... : ... .. . ... : ... .. . ... : ... .. . ...
ROW 24 : ... .. . ... : ... .. . ... : ... .. . ... : ... .. . ... : ... .. . ...
ROW 25 : ... .. . ... : ... .. . ... : ... .. . ... : ... .. . ... : ... .. . ...
ROW 26 : ... .. . ... : ... .. . ... : ... .. . ... : ... .. . ... : ... .. . ...
ROW 27 : ... .. . ... : ... .. . ... : ... .. . ... : ... .. . ... : ... .. . ...
ROW 28 : ... .. . ... : ... .. . ... : ... .. . ... : ... .. . ... : ... .. . ...
ROW 29 : ... .. . ... : ... .. . ... : ... .. . ... : ... .. . ... : ... .. . ...
ROW 2A : ... .. . ... : ... .. . ... : ... .. . ... : ... .. . ... : ... .. . ...
ROW 2B : ... .. . ... : ... .. . ... : ... .. . ... : ... .. . ... : ... .. . ...
ROW 2C : ... .. . ... : ... .. . ... : ... .. . ... : ... .. . ... : ... .. . ...
ROW 2D : ... .. . ... : ... .. . ... : ... .. . ... : ... .. . ... : ... .. . ...
ROW 2E : ... .. . ... : ... .. . ... : ... .. . ... : ... .. . ... : ... .. . ...
ROW 2F : ... .. . ... : ... .. . ... : ... .. . ... : ... .. . ... : ... .. . ...
ROW 30 : ... .. . ... : ... .. . ... : ... .. . ... : ... .. . ... : ... .. . ...
ROW 31 : ... .. . ... : ... .. . ... : ... .. . ... : ... .. . ... : ... .. . ...
ROW 32 : ... .. . ... : ... .. . ... : ... .. . ... : ... .. . ... : ... .. . ...
ROW 33 : ... .. . ... : ... .. . ... : ... .. . ... : ... .. . ... : ... .. . ...
ROW 34 : ... .. . ... : ... .. . ... : ... .. . ... : ... .. . ... : ... .. . ...
ROW 35 : ... .. . ... : ... .. . ... : ... .. . ... : ... .. . ... : ... .. . ...
ROW 36 : ... .. . ... : ... .. . ... : ... .. . ... : ... .. . ... : ... .. . ...
ROW 37 : ... .. . ... : ... .. . ... : ... .. . ... : ... .. . ... : ... .. . ...
ROW 38 : ... .. . ... : C#3 12 . ... : ... .. . ... : ... .. . ... : ... .. . ...
ROW 39 : ... .. . ... : ... .. . ... : ... .. . ... : ... .. . ... : ... .. . ...
ROW 3A : ... .. . ... : C#3 12 . ... : ... .. . ... : ... .. . ... : ... .. . ...
ROW 3B : ... .. . ... : ... .. . ... : ... .. . ... : ... .. . ... : ... .. . ...
ROW 3C : ... .. . ... : D#3 12 . ... : ... .. . ... : ... .. . ... : ... .. . ...
ROW 3D : ... .. . ... : C-4 12 . ... : ... .. . ... : ... .. . ... : ... .. . ...
ROW 3E : ... .. . ... : ... .. . ... : ... .. . ... : ... .. . ... : ... .. . ...
ROW 3F : ... .. . ... : ... .. . ... : ... .. . ... : ... .. . ... : ... .. . ...

PATTERN 04
ROW 00 : ... .. . ... : ... .. . ... : F-3 13 . ... : ... .. . ... : ... .. . ...
ROW 01 : ... .. . ... : ... .. . ... : ... .. . ... : ... .. . ... : ... .. . ...
ROW 02 : ... .. . ... : ... .. . ... : F-3 13 . ... : ... .. . ... : ... .. . ...
ROW 03 : ... .. . ... : ... .. . ... : ... .. . ... : ... .. . ... : ... .. . ...
ROW 04 : ... .. . ... : ... .. . ... : E-3 13 . ... : ... .. . ... : ... .. . ...
ROW 05 : ... .. . ... : ... .. . ... : ... .. . ... : ... .. . ... : ... .. . ...
ROW 06 : ... .. . ... : ... .. . ... : F-3 13 . ... : ... .. . ... : ... .. . ...
ROW 07 : ... .. . ... : ... .. . ... : ... .. . ... : ... .. . ... : ... .. . ...
ROW 08 : ... .. . ... : ... .. . ... : F-3 13 . ... : ... .. . ... : ... .. . ...
ROW 09 : ... .. . ... : ... .. . ... : ... .. . ... : ... .. . ... : ... .. . ...
ROW 0A : ... .. . ... : ... .. . ... : F-3 13 . ... : ... .. . ... : ... .. . ...
ROW 0B : ... .. . ... : ... .. . ... : ... .. . ... : ... .. . ... : ... .. . ...
ROW 0C : ... .. . ... : ... .. . ... : E-3 13 . ... : ... .. . ... : ... .. . ...
ROW 0D : ... .. . ... : ... .. . ... : ... .. . ... : ... .. . ... : ... .. . ...
ROW 0E : ... .. . ... : ... .. . ... : F-3 13 . ... : ... .. . ... : ... .. . ...
ROW 0F : ... .. . ... : ... .. . ... : ... .. . ... : ... .. . ... : ... .. . ...
ROW 10 : ... .. . ... : ... .. . ... : E-3 13 . ... : ... .. . ... : ... .. . ...
ROW 11 : ... .. . ... : ... .. . ... : ... .. . ... : ... .. . ... : ... .. . ...
ROW 12 : ... .. . ... : ... .. . ... : F-3 13 . ... : ... .. . ... : ... .. . ...
ROW 13 : ... .. . ... : ... .. . ... : ... .. . ... : ... .. . ... : ... .. . ...
ROW 14 : ... .. . ... : ... .. . ... : F-3 13 . ... : ... .. . ... : ... .. . ...
ROW 15 : ... .. . ... : ... .. . ... : ... .. . ... : ... .. . ... : ... .. . ...
ROW 16 : ... .. . ... : ... .. . ... : F-3 13 . ... : ... .. . ... : ... .. . ...
ROW 17 : ... .. . ... : ... .. . ... : ... .. . ... : ... .. . ... : ... .. . ...
ROW 18 : ... .. . ... : ... .. . ... : E-3 13 . ... : ... .. . ... : ... .. . ...
ROW 19 : ... .. . ... : ... .. . ... : ... .. . ... : ... .. . ... : ... .. . ...
ROW 1A : ... .. . ... : ... .. . ... : F-3 13 . ... : ... .. . ... : ... .. . ...
ROW 1B : ... .. . ... : ... .. . ... : ... .. . ... : ... .. . ... : ... .. . ...
ROW 1C : ... .. . ... : ... .. . ... : F-3 13 . ... : ... .. . ... : ... .. . ...
ROW 1D : ... .. . ... : ... .. . ... : ... .. . ... : ... .. . ... : ... .. . ...
ROW 1E : ... .. . ... : ... .. . ... : E-3 13 . ... : ... .. . ... : ... .. . ...
ROW 1F : ... .. . ... : ... .. . ... : ... .. . ... : ... .. . ... : ... .. . ...
ROW 20 : ... .. . ... : ... .. . ... : F-3 13 . ... : ... .. . ... : ... .. . ...
ROW 21 : ... .. . ... : ... .. . ... : ... .. . ... : ... .. . ... : ... .. . ...
ROW 22 : ... .. . ... : ... .. . ... : F-3 13 . ... : ... .. . ... : ... .. . ...
ROW 23 : ... .. . ... : ... .. . ... : ... .. . ... : ... .. . ... : ... .. . ...
ROW 24 : ... .. . ... : ... .. . ... : F-3 13 . ... : ... .. . ... : ... .. . ...
ROW 25 : ... .. . ... : ... .. . ... : ... .. . ... : ... .. . ... : ... .. . ...
ROW 26 : ... .. . ... : ... .. . ... : E-3 13 . ... : ... .. . ... : ... .. . ...
ROW 27 : ... .. . ... : ... .. . ... : ... .. . ... : ... .. . ... : ... .. . ...
ROW 28 : ... .. . ... : ... .. . ... : F-3 13 . ... : ... .. . ... : ... .. . ...
ROW 29 : ... .. . ... : ... .. . ... : ... .. . ... : ... .. . ... : ... .. . ...
ROW 2A : ... .. . ... : ... .. . ... : E-3 13 . ... : ... .. . ... : ... .. . ...
ROW 2B : ... .. . ... : ... .. . ... : ... .. . ... : ... .. . ... : ... .. . ...
ROW 2C : ... .. . ... : ... .. . ... : F-3 13 . ... : ... .. . ... : ... .. . ...
ROW 2D : ... .. . ... : ... .. . ... : ... .. . ... : ... .. . ... : ... .. . ...
ROW 2E : ... .. . ... : ... .. . ... : F-3 13 . ... : ... .. . ... : ... .. . ...
ROW 2F : ... .. . ... : ... .. . ... : ... .. . ... : ... .. . ... : ... .. . ...
ROW 30 : ... .. . ... : ... .. . ... : F-3 13 . ... : ... .. . ... : ... .. . ...
ROW 31 : ... .. . ... : ... .. . ... : ... .. . ... : ... .. . ... : ... .. . ...
ROW 32 : ... .. . ... : ... .. . ... : E-3 13 . ... : ... .. . ... : ... .. . ...
ROW 33 : ... .. . ... : ... .. . ... : ... .. . ... : ... .. . ... : ... .. . ...
ROW 34 : ... .. . ... : ... .. . ... : F-3 13 . ... : ... .. . ... : ... .. . ...
ROW 35 : ... .. . ... : ... .. . ... : ... .. . ... : ... .. . ... : ... .. . ...
ROW 36 : ... .. . ... : ... .. . ... : F-3 13 . ... : ... .. . ... : ... .. . ...
ROW 37 : ... .. . ... : ... .. . ... : ... .. . ... : ... .. . ... : ... .. . ...
ROW 38 : ... .. . ... : ... .. . ... : E-3 13 . ... : ... .. . ... : ... .. . ...
ROW 39 : ... .. . ... : ... .. . ... : ... .. . ... : ... .. . ... : ... .. . ...
ROW 3A : ... .. . ... : ... .. . ... : F-3 13 . ... : ... .. . ... : ... .. . ...
ROW 3B : ... .. . ... : ... .. . ... : ... .. . ... : ... .. . ... : ... .. . ...
ROW 3C : ... .. . ... : ... .. . ... : F-3 13 . ... : ... .. . ... : ... .. . ...
ROW 3D : ... .. . ... : ... .. . ... : ... .. . ... : ... .. . ... : ... .. . ...
ROW 3E : ... .. . ... : ... .. . ... : F-3 13 . ... : ... .. . ... : ... .. . ...
ROW 3F : ... .. . ... : ... .. . ... : ... .. . ... : ... .. . ... : ... .. . ...

PATTERN 05
ROW 00 : ... .. . ... : D#3 12 . ... : F-3 13 . ... : ... .. . ... : ... .. . ...
ROW 01 : ... .. . ... : ... .. . ... : ... .. . ... : ... .. . ... : ... .. . ...
ROW 02 : ... .. . ... : ... .. . ... : ... .. . ... : ... .. . ... : ... .. . ...
ROW 03 : ... .. . ... : ... .. . ... : ... .. . ... : ... .. . ... : ... .. . ...
ROW 04 : ... .. . ... : E-4 0E . ... : E-3 13 . ... : ... .. . ... : ... .. . ...
ROW 05 : ... .. . ... : ... .. . ... : ... .. . ... : ... .. . ... : ... .. . ...
ROW 06 : ... .. . ... : ... .. . ... : ... .. . ... : ... .. . ... : ... .. . ...
ROW 07 : ... .. . ... : ... .. . ... : ... .. . ... : ... .. . ... : ... .. . ...
ROW 08 : ... .. . ... : E-4 12 . ... : F-3 13 . ... : ... .. . ... : ... .. . ...
ROW 09 : ... .. . ... : ... .. . ... : ... .. . ... : ... .. . ... : ... .. . ...
ROW 0A : ... .. . ... : ... .. . ... : F-3 13 . ... : ... .. . ... : ... .. . ...
ROW 0B : ... .. . ... : ... .. . ... : ... .. . ... : ... .. . ... : ... .. . ...
ROW 0C : ... .. . ... : C-4 0E . ... : E-3 13 . ... : ... .. . ... : ... .. . ...
ROW 0D : ... .. . ... : ... .. . ... : ... .. . ... : ... .. . ... : ... .. . ...
ROW 0E : ... .. . ... : ... .. . ... : F-3 13 . ... : ... .. . ... : ... .. . ...
ROW 0F : ... .. . ... : ... .. . ... : ... .. . ... : ... .. . ... : ... .. . ...
ROW 10 : ... .. . ... : D-3 0E . ... : E-3 13 . ... : ... .. . ... : ... .. . ...
ROW 11 : ... .. . ... : ... .. . ... : ... .. . ... : ... .. . ... : ... .. . ...
ROW 12 : ... .. . ... : ... .. . ... : ... .. . ... : ... .. . ... : ... .. . ...
ROW 13 : ... .. . ... : ... .. . ... : ... .. . ... : ... .. . ... : ... .. . ...
ROW 14 : ... .. . ... : ... .. . ... : F-3 13 . ... : ... .. . ... : ... .. . ...
ROW 15 : ... .. . ... : ... .. . ... : ... .. . ... : ... .. . ... : ... .. . ...
ROW 16 : ... .. . ... : ... .. . ... : ... .. . ... : ... .. . ... : ... .. . ...
ROW 17 : ... .. . ... : ... .. . ... : ... .. . ... : ... .. . ... : ... .. . ...
ROW 18 : ... .. . ... : D-3 12 . ... : E-3 13 . ... : ... .. . ... : ... .. . ...
ROW 19 : ... .. . ... : ... .. . ... : ... .. . ... : ... .. . ... : ... .. . ...
ROW 1A : ... .. . ... : ... .. . ... : F-3 13 . ... : ... .. . ... : ... .. . ...
ROW 1B : ... .. . ... : ... .. . ... : ... .. . ... : ... .. . ... : ... .. . ...
ROW 1C : ... .. . ... : E-3 0E . ... : F-3 13 . ... : ... .. . ... : ... .. . ...
ROW 1D : ... .. . ... : E-3 12 . ... : ... .. . ... : ... .. . ... : ... .. . ...
ROW 1E : ... .. . ... : ... .. . ... : E-3 13 . ... : ... .. . ... : ... .. . ...
ROW 1F : ... .. . ... : ... .. . ... : ... .. . ... : ... .. . ... : ... .. . ...
ROW 20 : ... .. . ... : E-4 0E . ... : F-3 13 . ... : ... .. . ... : ... .. . ...
ROW 21 : ... .. . ... : ... .. . ... : ... .. . ... : ... .. . ... : ... .. . ...
ROW 22 : ... .. . ... : ... .. . ... : ... .. . ... : ... .. . ... : ... .. . ...
ROW 23 : ... .. . ... : ... .. . ... : ... .. . ... : ... .. . ... : ... .. . ...
ROW 24 : ... .. . ... : ... .. . ... : F-3 13 . ... : ... .. . ... : ... .. . ...
ROW 25 : ... .. . ... : ... .. . ... : ... .. . ... : ... .. . ... : ... .. . ...
ROW 26 : ... .. . ... : ... .. . ... : E-3 13 . ... : ... .. . ... : ... .. . ...
ROW 27 : ... .. . ... : ... .. . ... : ... .. . ... : ... .. . ... : ... .. . ...
ROW 28 : ... .. . ... : ... .. . ... : ... .. . ... : ... .. . ... : ... .. . ...
ROW 29 : ... .. . ... : ... .. . ... : ... .. . ... : ... .. . ... : ... .. . ...
ROW 2A : ... .. . ... : ... .. . ... : ... .. . ... : ... .. . ... : ... .. . ...
ROW 2B : ... .. . ... : ... .. . ... : ... .. . ... : ... .. . ... : ... .. . ...
ROW 2C : ... .. . ... : ... .. . ... : ... .. . ... : ... .. . ... : ... .. . ...
ROW 2D : ... .. . ... : ... .. . ... : ... .. . ... : ... .. . ... : ... .. . ...
ROW 2E : ... .. . ... : ... .. . ... : F-3 13 . ... : ... .. . ... : ... .. . ...
ROW 2F : ... .. . ... : ... .. . ... : ... .. . ... : ... .. . ... : ... .. . ...
ROW 30 : ... .. . ... : C-4 12 . ... : F-3 13 . ... : ... .. . ... : ... .. . ...
ROW 31 : ... .. . ... : ... .. . ... : ... .. . ... : ... .. . ... : ... .. . ...
ROW 32 : ... .. . ... : ... .. . ... : ... .. . ... : ... .. . ... : ... .. . ...
ROW 33 : ... .. . ... : ... .. . ... : ... .. . ... : ... .. . ... : ... .. . ...
ROW 34 : ... .. . ... : C-3 12 . ... : ... .. . ... : ... .. . ... : ... .. . ...
ROW 35 : ... .. . ... : ... .. . ... : ... .. . ... : ... .. . ... : ... .. . ...
ROW 36 : ... .. . ... : ... .. . ... : F-3 13 . ... : ... .. . ... : ... .. . ...
ROW 37 : ... .. . ... : ... .. . ... : ... .. . ... : ... .. . ... : ... .. . ...
ROW 38 : ... .. . ... : E-4 12 . ... : E-3 13 . ... : ... .. . ... : ... .. . ...
ROW 39 : ... .. . ... : ... .. . ... : ... .. . ... : ... .. . ... : ... .. . ...
ROW 3A : ... .. . ... : ... .. . ... : F-3 13 . ... : ... .. . ... : ... .. . ...
ROW 3B : ... .. . ... : E-4 12 . ... : ... .. . ... : ... .. . ... : ... .. . ...
ROW 3C : ... .. . ... : ... .. . ... : F-3 13 . ... : ... .. . ... : ... .. . ...
ROW 3D : ... .. . ... : ... .. . ... : ... .. . ... : ... .. . ... : ... .. . ...
ROW 3E : ... .. . ... : ... .. . ... : F-3 13 . ... : ... .. . ... : ... .. . ...
ROW 3F : ... .. . ... : ... .. . ... : ... .. . ... : ... .. . ... : ... .. . ...

# End of export
